<svg width="14" height="14" viewBox="0 0 14 14" fill="none" xmlns="http://www.w3.org/2000/svg">
    <circle cx="7" cy="7" r="6.5" stroke="#000"/>
    <path d="M9.5 7c0 1.882-.328 3.562-.838 4.753-.256.596-.547 1.047-.845 1.341-.297.292-.572.406-.817.406s-.52-.114-.817-.406c-.298-.294-.59-.745-.845-1.341C4.828 10.562 4.5 8.882 4.5 7c0-1.882.328-3.562.838-4.753.256-.596.547-1.047.845-1.341C6.48.614 6.755.5 7 .5s.52.114.817.406c.298.294.59.745.845 1.341C9.172 3.438 9.5 5.118 9.5 7zM1 6.5h12" stroke="#000"/>
</svg>
