<svg width="207" height="216" viewBox="0 0 207 216" fill="none" xmlns="http://www.w3.org/2000/svg">
    <mask id="g1ie5rj7va" fill="#fff">
        <path fill-rule="evenodd" clip-rule="evenodd" d="M207 90.506c0 29.774-14.431 56.178-36.679 72.598v52.213H52.133v-26.49H30.736v-45.34H0L26.886 96.92a91.475 91.475 0 0 1-.225-6.414c0-49.799 40.37-90.17 90.169-90.17 49.8 0 90.17 40.371 90.17 90.17z"/>
    </mask>
    <path d="m170.321 163.104-3.563-4.828a6 6 0 0 0-2.437 4.828h6zm0 52.213v6a6 6 0 0 0 6-6h-6zm-118.188 0h-6a6 6 0 0 0 6 6v-6zm0-26.49h6a6 6 0 0 0-6-6v6zm-21.397 0h-6a6 6 0 0 0 6 6v-6zm0-45.34h6a6 6 0 0 0-6-6v6zm-30.736 0-5.196-3a6 6 0 0 0 5.196 9v-6zM26.886 96.92l5.196 3a6 6 0 0 0 .789-3.42l-5.986.42zm146.998 71.011C197.599 150.429 213 122.266 213 90.506h-12c0 27.789-13.46 52.432-34.242 67.77l7.126 9.655zm2.437-4.576v-.251h-12v.251h12zm-12 0v25.472h12v-25.472h-12zm0 25.472v26.49h12v-26.49h-12zm6 20.49H52.133v12H170.32v-12zm-112.188 6v-26.49h-12v26.49h12zm-27.397-20.49h21.397v-12H30.736v12zm-6-51.34v45.34h12v-45.34h-12zm-24.736 6h30.736v-12H0v12zM21.69 93.92l-26.886 46.567 10.392 6L32.082 99.92l-10.393-6zm-1.03-3.414c0 2.297.082 4.576.24 6.835l11.97-.841a85.455 85.455 0 0 1-.21-5.994h-12zm96.17-96.17c-53.112 0-96.17 43.058-96.17 96.17h12c0-46.485 37.685-84.17 84.17-84.17v-12zM213 90.507c0-53.112-43.057-96.17-96.17-96.17v12c46.486 0 84.17 37.685 84.17 84.17h12z" fill="#00B2FF" mask="url(#g1ie5rj7va)"/>
    <circle cx="93.65" cy="77.782" transform="rotate(45 93.65 77.782)" stroke="#00B2FF" stroke-width="6" r="31.813"/>
    <circle cx="137.803" cy="76.945" transform="rotate(45 137.803 76.945)" stroke="#00B2FF" stroke-width="6" r="31.813"/>
    <path stroke="#00B2FF" stroke-width="6" d="m115.308 58.693 40.302 40.302-40.747 40.747L74.56 99.44z"/>
</svg>
